inDegrees=yes
name=ik_lifting_orientations
DataType=double
version=3
OpenSimVersion=4.5-2024-01-10-34fd6af
endheader
time	pelvis_tilt	pelvis_list	pelvis_rotation	pelvis_tx	pelvis_ty	pelvis_tz	hip_flexion_r	hip_adduction_r	hip_rotation_r	knee_angle_r	knee_angle_r_beta	ankle_angle_r	subtalar_angle_r	mtp_angle_r	hip_flexion_l	hip_adduction_l	hip_rotation_l	knee_angle_l	knee_angle_l_beta	ankle_angle_l	subtalar_angle_l	mtp_angle_l	lumbar_extension	lumbar_bending	lumbar_rotation	arm_flex_r	arm_add_r	arm_rot_r	elbow_flex_r	pro_sup_r	wrist_flex_r	wrist_dev_r	arm_flex_l	arm_add_l	arm_rot_l	elbow_flex_l	pro_sup_l	wrist_flex_l	wrist_dev_l
1.54	4.814287340946869	4.234403485871227	-97.31831811851509	0	0.9399999998679526	0	44.60461632083224	-10.25768449877948	0	59.67278071615301	1.04148649731745	-5.068085902855736	0	0	44.60461632083224	-10.25768449877948	0	59.67278071615301	1.04148649731745	-5.068085902855736	0	0	-21.68127658778129	8.405292527068287	32.78865417008204	13.34395574296126	-29.81746381031347	-1.111101286840943	29.32117068666666	2.532246177022481	0	0	0	-10.51406747666937	0	87.50938547141133	2.532246177022481	0	0
1.55	4.683982485775135	4.066031787577219	-97.89758145226116	0	0.9399999998679526	0	44.60472145604133	-10.25744496392421	0	59.67284900871833	1.041487689247569	-5.068003339954665	0	0	44.60472145604133	-10.25744496392421	0	59.67284900871833	1.041487689247569	-5.068003339954665	0	0	-21.23501068453021	8.149392621190586	32.59068139424836	13.18066102564687	-29.97884865807478	-0.3992499104662971	30.57376867236396	2.531777427758292	0	0	0	-10.5146790254485	0	87.50984647105216	2.531777427758292	0	0
1.56	4.520225319713963	3.898866235401226	-98.34450900711201	0	0.9399999998679526	0	44.60484912921647	-10.2571540043426	0	59.67293187923614	1.041489135610958	-5.067903064614157	0	0	44.60484912921647	-10.2571540043426	0	59.67293187923614	1.041489135610958	-5.067903064614157	0	0	-20.6082184157984	7.991177365918241	32.02308114236796	13.08518169578161	-30.11343162425741	0.7395895814020851	31.73294669498451	2.531208317998885	0	0	0	-10.51542135205446	0	87.51040617195819	2.531208317998885	0	0
1.57	4.325832453587428	3.73025774431489	-98.66457062519285	0	0.9399999998679526	0	44.6050137659534	-10.25677891791253	0	59.67303869545744	1.041490999905714	-5.067773831921552	0	0	44.6050137659534	-10.25677891791253	0	59.67303869545744	1.041490999905714	-5.067773831921552	0	0	-20.06764444746695	8.003429782240634	31.04111582570525	13.13243119755099	-30.37980510589365	2.171949758622076	33.0056144384509	2.530474503599313	0	0	0	-10.51637841749283	0	87.51112785450641	2.530474503599313	0	0
1.58	4.11978904996798	3.518967020979453	-99.12280016364028	0	0.9399999998679526	0	44.60521177417559	-10.25632835365092	0	59.67316718213844	1.041493242421343	-5.067618672840538	0	0	44.60521177417559	-10.25632835365092	0	59.67316718213844	1.041493242421343	-5.067618672840538	0	0	-19.49651699424349	7.935866325926158	30.12586574192984	13.21335654958454	-30.47560033527731	3.905037329255341	34.48619483515228	2.529591806383823	0	0	0	-10.51752977624739	0	87.51199595847484	2.529591806383823	0	0
1.59	3.89868690494071	3.315872835979871	-99.67894335583775	0	0.9399999998679526	0	44.60540555257219	-10.25588803318181	0	59.67329295520246	1.04149543757542	-5.067467126030981	0	0	44.60540555257219	-10.25588803318181	0	59.67329295520246	1.04149543757542	-5.067467126030981	0	0	-18.95787102668838	7.831688877121099	29.32535707083387	13.33816885922379	-30.57941652091472	5.62452158441868	35.98368138434319	2.528727789763972	0	0	0	-10.51865692185212	0	87.51284569071315	2.528727789763972	0	0
1.6	3.68000754479827	3.080832384177352	-100.2623411073521	0	0.9399999998679526	0	44.60801231233206	-10.25181056755294	0	59.67543285810021	1.041532785926659	-5.066178608536426	0	0	44.60801231233206	-10.25181056755294	0	59.67543285810021	1.041532785926659	-5.066178608536426	0	0	-18.2597084540405	7.631609218214673	28.57686319811671	13.55796165158308	-30.64267729686283	7.665841904220375	37.2176030230054	2.515937738614991	0	0	0	-10.5366518704072	0	87.52542444303351	2.515937738614991	0	0
1.61	3.462453236020403	2.885444686661082	-100.5466654096174	0	0.9399999998679526	0	44.61081215375474	-10.24746667433749	0	59.67772989391781	1.041572876764712	-5.064809844115308	0	0	44.61081215375474	-10.24746667433749	0	59.67772989391781	1.041572876764712	-5.064809844115308	0	0	-17.74953600770309	7.650228346684119	27.45532532629019	14.15293154075782	-31.05327524620041	10.12133521177454	38.61226469151983	2.502182700914747	0	0	0	-10.55602084762151	0	87.53895224172085	2.502182700914747	0	0
1.62	3.2228202853693	2.676679688601058	-100.7523461368259	0	0.9399999998679526	0	44.61355315932936	-10.24325235988602	0	59.67997783594757	1.041612110754525	-5.063486056948154	0	0	44.61355315932936	-10.24325235988602	0	59.67997783594757	1.041612110754525	-5.063486056948154	0	0	-17.25811360490152	7.700374839374028	26.28438751648271	14.80859243667859	-31.45256726334889	12.57390000641632	40.01925425543522	2.488696984636006	0	0	0	-10.57502910562999	0	87.55221517044484	2.488696984636006	0	0
1.63	2.975965581227201	2.445918030727826	-101.3203018594406	0	0.9399999998679526	0	44.6165961636755	-10.23864380037747	0	59.6824776468974	1.041655740686277	-5.062045773248246	0	0	44.6165961636755	-10.23864380037747	0	59.6824776468974	1.041655740686277	-5.062045773248246	0	0	-16.71030682719818	7.700539496312935	24.83948002708392	15.92973223393059	-31.78807973537237	16.12390606135132	41.40040614161008	2.473687455288874	0	0	0	-10.59622161173625	0	87.56697674260108	2.473687455288874	0	0
1.64	2.732551233047341	2.224102808507604	-101.9885140971134	0	0.9399999998679526	0	44.61914052076651	-10.23481655740746	0	59.68456525323464	1.041692176290348	-5.06085246364003	0	0	44.61914052076651	-10.23481655740746	0	59.68456525323464	1.041692176290348	-5.06085246364003	0	0	-16.08022141771035	7.539828769477848	23.8314630764497	16.89625820866503	-31.99189696763972	19.15258921913006	42.75831301597341	2.461123643204891	0	0	0	-10.61397386931078	0	87.57933300215907	2.461123643204891	0	0
1.65	2.463286257903468	1.989609893086432	-102.3449463545786	0	0.9399999998679526	0	44.62143254715362	-10.23137215968799	0	59.68643939981157	1.04172488631878	-5.059779262874421	0	0	44.62143254715362	-10.23137215968799	0	59.68643939981157	1.04172488631878	-5.059779262874421	0	0	-15.48335066223341	7.418758449589823	22.90518740520621	17.58207180600008	-32.20376035259086	21.44442028662142	44.22901475189267	2.449806744926352	0	0	0	-10.62996225668781	0	87.59046294658468	2.449806744926352	0	0
